# xmcd CD database file
#
# Track frame offsets:
#	150
#	19574
#	38823
#	61527
#	84266
#	113267
#	136583
#
# Disc length: 2162 seconds
#
# Revision: 1
# Processed by: cddbd v1.5.1PL0 Copyright (c) Steve Scherf et al.
# Submitted via: CDex 1.51
#
DISCID=3b087007
DTITLE=Baby Lopez Furst trio - Jazz Argentino
DYEAR=1964
DGENRE=Jazz
TTITLE0=Israel
TTITLE1=Los Viejos
TTITLE2=My Bonnie
TTITLE3=Una Abeja Durmiente
TTITLE4=Sometime ago
TTITLE5=Al Este del Sol
TTITLE6=Cartas de amor
EXTD=YEAR: 1964
EXTT0=
EXTT1=
EXTT2=
EXTT3=
EXTT4=
EXTT5=
EXTT6=
PLAYORDER=
